<svg width="209" height="171" viewBox="0 0 209 171" fill="none" xmlns="http://www.w3.org/2000/svg">
<path d="M25.2016 15.68C25.2016 6.48 33.8416 -2.86102e-06 46.1616 -2.86102e-06C57.3616 -2.86102e-06 63.6016 4.24 63.7616 9.76C63.8416 12.88 61.5216 14.96 57.3616 15.52C53.7616 16 50.4016 14.32 48.3216 10.96C45.8416 7.04 44.1616 4.48 42.6416 4.48C41.2016 4.48 40.3216 6.24 40.3216 9.44C40.3216 24.72 67.1216 18.48 67.1216 35.6C67.1216 45.68 57.6016 52.8 43.3616 52.8C30.8016 52.8 24.0016 49.84 23.2816 44.16C22.8016 40.16 25.4416 36.4 30.5616 36.4C34.7216 36.4 37.7616 38.32 41.2016 43.28C42.8816 45.76 44.1616 48.48 47.6016 48.48C50.1616 48.48 51.6016 46.64 51.6016 43.44C51.6016 32.24 25.2016 35.52 25.2016 15.68ZM83.0309 28.8C84.8709 33.44 89.3509 35.92 94.3109 35.92C97.9109 35.92 101.831 34.56 105.271 32C105.911 31.52 106.311 31.84 106.311 32.8C106.311 44.08 97.7509 52.8 87.2709 52.8C76.7109 52.8 69.5109 43.84 69.5109 32.08C69.5109 21.84 75.4309 11.12 87.3509 11.12C93.6709 11.12 98.7109 14.16 100.631 18.64C102.791 23.68 100.791 27.92 94.8709 27.92H83.6709C83.1109 27.92 82.7909 28.24 83.0309 28.8ZM82.9509 24.96L88.0709 24.4C88.7109 24.32 89.0309 23.84 89.0309 23.28C89.0309 20.72 88.5509 13.92 84.8709 13.92C82.3109 13.92 81.1909 19.12 81.8309 24.16C81.9109 24.72 82.3909 25.04 82.9509 24.96ZM121 28.8C122.84 33.44 127.32 35.92 132.28 35.92C135.88 35.92 139.8 34.56 143.24 32C143.88 31.52 144.28 31.84 144.28 32.8C144.28 44.08 135.72 52.8 125.24 52.8C114.68 52.8 107.48 43.84 107.48 32.08C107.48 21.84 113.4 11.12 125.32 11.12C131.64 11.12 136.68 14.16 138.6 18.64C140.76 23.68 138.76 27.92 132.84 27.92H121.64C121.08 27.92 120.76 28.24 121 28.8ZM120.92 24.96L126.04 24.4C126.68 24.32 127 23.84 127 23.28C127 20.72 126.52 13.92 122.84 13.92C120.28 13.92 119.16 19.12 119.8 24.16C119.88 24.72 120.36 25.04 120.92 24.96ZM163.928 18.24C166.968 14.8 171.368 11.36 175.368 11.36C181.288 11.36 183.848 14.88 184.328 20.4C185.208 29.68 185.528 34.88 186.488 44.16C186.648 45.44 186.808 46.16 187.048 47.44C187.608 50.64 185.128 52 182.728 52H174.248C171.848 52 169.128 50.56 169.128 47.44C169.128 45.36 169.928 44.16 169.928 42.08V28.4C169.928 23.68 168.968 21.68 166.808 21.76C164.568 21.92 163.048 23.44 163.048 25.68V42.08C163.048 43.52 164.088 46 164.088 47.44C164.088 50 161.768 52 158.728 52H151.368C148.328 52 146.008 50 146.008 47.44C146.008 46 147.048 43.52 147.048 42.08V23.44C147.048 21.76 145.928 19.68 145.928 17.76C145.928 14.96 147.848 13.2 150.648 12.72L159.208 11.28C161.448 10.88 163.048 11.76 163.048 13.76V17.84C163.048 18.72 163.368 18.88 163.928 18.24ZM88.1009 83.36C83.7009 81.52 81.0609 78.8 80.5809 75.6C79.4609 68.48 87.5409 64 101.381 64C113.141 64 119.781 67.2 119.621 72.8C119.541 76.8 115.621 78.96 111.541 78.96C108.501 78.96 105.381 77.68 103.781 75.04C101.621 71.44 101.461 67.52 99.4609 67.52C97.3809 67.52 95.8609 69.6 96.0209 73.92C96.1809 78.72 100.661 82.16 103.381 83.04C104.181 83.28 104.981 83.92 104.741 84.72C104.581 85.6 103.861 86.16 102.981 86.32C93.4609 88.72 89.7809 93.44 90.1009 100.32C90.4209 108.4 96.1809 113.36 105.941 113.36C121.381 113.36 126.821 100.32 120.101 88.48C119.781 87.92 118.981 87.68 118.341 88.08C114.981 90 112.101 92.32 110.901 95.04C110.661 95.6 110.821 96.32 111.461 96.88C115.461 100.4 111.941 107.2 106.261 107.2C101.381 107.2 98.1809 104.16 98.4209 99.68C98.9809 89.36 121.781 83.28 129.381 76.48C129.941 76 129.781 75.6 129.061 75.44C126.261 74.88 124.341 72.8 124.341 69.92C124.341 66.72 127.301 64.24 131.061 64.24C135.221 64.24 137.781 66.32 138.101 69.92C138.421 73.52 136.501 76.56 134.101 79.12C132.421 80.88 129.541 82.48 126.341 84.08C124.421 85.04 124.501 85.52 126.741 85.68C132.421 86.08 140.421 88.56 140.821 96.08C141.461 107.68 124.821 116.8 104.581 116.8C83.2209 116.8 69.9409 110.8 69.1409 101.04C68.5009 92.64 76.0209 85.84 87.8609 84.96C90.0209 84.8 90.1009 84.24 88.1009 83.36ZM18.7109 150.8V160.08C18.7109 161.52 19.7509 164 19.7509 165.44C19.7509 168 17.4309 170 14.3909 170H6.23094C3.19094 170 0.870938 168 0.870938 165.44C0.870938 164 1.91094 161.52 1.91094 160.08V128.72C1.91094 127.28 0.870938 124.8 0.870938 123.36C0.870938 120.8 3.19094 118.8 6.23094 118.8H14.3909C17.4309 118.8 19.7509 120.8 19.7509 123.36C19.7509 124.8 18.7109 127.28 18.7109 128.72V139.44C18.7109 140.24 19.1909 140.72 19.9909 140.72H29.3509C30.1509 140.72 30.6309 140.24 30.6309 139.44V128.72C30.6309 127.28 29.5909 124.8 29.5909 123.36C29.5909 120.8 31.9109 118.8 34.9509 118.8H43.1109C46.1509 118.8 48.4709 120.8 48.4709 123.36C48.4709 124.8 47.4309 127.28 47.4309 128.72V160.08C47.4309 161.52 48.4709 164 48.4709 165.44C48.4709 168 46.1509 170 43.1109 170H34.9509C31.9109 170 29.5909 168 29.5909 165.44C29.5909 164 30.6309 161.52 30.6309 160.08V150.8C30.6309 150 30.1509 149.52 29.3509 149.52H19.9909C19.1909 149.52 18.7109 150 18.7109 150.8ZM64.9841 146.8C66.8241 151.44 71.3041 153.92 76.2641 153.92C79.8641 153.92 83.7841 152.56 87.2241 150C87.8641 149.52 88.2641 149.84 88.2641 150.8C88.2641 162.08 79.7041 170.8 69.2241 170.8C58.6641 170.8 51.4641 161.84 51.4641 150.08C51.4641 139.84 57.3841 129.12 69.3041 129.12C75.6241 129.12 80.6641 132.16 82.5841 136.64C84.7441 141.68 82.7441 145.92 76.8241 145.92H65.6241C65.0641 145.92 64.7441 146.24 64.9841 146.8ZM64.9041 142.96L70.0241 142.4C70.6641 142.32 70.9841 141.84 70.9841 141.28C70.9841 138.72 70.5041 131.92 66.8241 131.92C64.2641 131.92 63.1441 137.12 63.7841 142.16C63.8641 142.72 64.3441 143.04 64.9041 142.96ZM113.993 167.04C111.353 169.92 107.673 170.8 102.953 170.8C95.2728 170.8 89.4328 166.24 89.4328 159.84C89.4328 152.96 95.5128 149.12 104.393 149.12C105.993 149.12 108.553 149.28 110.713 149.44C111.273 149.52 111.593 149.12 111.513 148.56L109.833 138.32C108.953 133.04 107.993 131.92 106.473 132.48C102.953 133.76 108.633 144.56 100.313 146.8C99.5128 147.04 98.7128 147.12 98.0728 147.12C92.0728 147.12 89.7528 139.84 93.6728 134.64C97.1928 130 103.513 129.36 109.193 129.36C118.313 129.36 124.873 133.92 126.153 141.28L129.753 162C130.153 164.4 132.073 170 127.753 170H121.273C118.073 170 116.153 168.72 115.113 167.2C114.793 166.72 114.393 166.64 113.993 167.04ZM112.313 153.68C112.153 152.32 110.473 152.16 109.353 152.16C107.353 152.16 105.033 154.16 105.753 159.76C106.393 164.96 108.473 166.88 110.793 166.32C112.153 166 113.753 164.32 113.353 159.68L112.313 153.68ZM150.407 143.36C150.567 133.68 153.527 129.2 159.447 129.2C163.687 129.2 165.367 132.56 165.607 136.32C166.167 146.08 156.647 146.32 149.767 147.36V160.08C149.767 161.52 150.807 164 150.807 165.44C150.807 168 148.487 170 145.447 170H138.087C135.047 170 132.727 168 132.727 165.44C132.727 164 133.767 161.52 133.767 160.08V141.44C133.767 139.76 132.647 137.68 132.647 135.76C132.647 132.96 134.567 131.2 137.367 130.72L143.927 129.6C147.847 128.96 149.767 130.8 149.767 135.36V143.28C149.767 144 150.407 144.08 150.407 143.36ZM194.464 167.76C192.304 169.92 189.184 170.8 184.864 170.8C173.904 170.8 166.464 162.32 166.464 150C166.464 136.64 174.224 129.2 185.024 129.2C187.984 129.2 190.304 129.76 192.064 130.88C192.544 131.2 192.864 131.04 192.864 130.48V128.88C192.864 127.2 191.744 125.12 191.744 123.2C191.744 120.4 193.664 118.64 196.464 118.16L205.024 116.72C207.264 116.32 208.864 117.2 208.864 119.2V165.6C208.864 168.4 206.544 170 202.544 170C200.304 170 197.664 169.6 195.744 167.76C195.344 167.36 194.864 167.36 194.464 167.76ZM192.864 142.24C192.144 135.28 189.904 131.68 187.264 131.92C184.064 132.16 182.784 138.64 183.584 150.32C184.384 162.4 185.744 167.36 189.184 167.2C191.104 167.04 192.464 162.8 192.864 155.12V142.24Z" fill="#53005A"/>
</svg>
