<svg width="1683" height="1683" viewBox="0 0 1683 1683" fill="none" xmlns="http://www.w3.org/2000/svg">
<circle cx="841.5" cy="841.5" r="815.5" fill="#6561F9" stroke="white" stroke-width="52"/>
<mask id="mask0_51_74" style="mask-type:alpha" maskUnits="userSpaceOnUse" x="52" y="52" width="1579" height="1579">
<circle cx="841.5" cy="841.5" r="763.5" fill="#6561F9" stroke="white" stroke-width="52"/>
</mask>
<g mask="url(#mask0_51_74)">
<path d="M1849 841.769H1159C1225.5 782.269 1294 792.27 1336.5 816.27C1370.5 835.47 1396.33 828.936 1405 823.269C1592.2 687.669 1779 779.103 1849 841.769Z" fill="#F6EAE2"/>
<path d="M773 1412.77H83C149.5 1353.27 218 1363.27 260.5 1387.27C294.5 1406.47 320.333 1399.94 329 1394.27C516.2 1258.67 703 1350.1 773 1412.77Z" fill="#F6EAE2"/>
</g>
<path d="M1187 274.769H497C563.5 215.269 632 225.27 674.5 249.27C708.5 268.47 734.333 261.936 743 256.269C930.2 120.669 1117 212.103 1187 274.769Z" fill="#F6EAE2"/>
<path d="M1477.35 1167.5L568.348 399L318.348 967L1420.35 1285L1477.35 1167.5Z" fill="#DD5148"/>
<path d="M568.347 399C470.347 487.333 283.147 724.6 318.347 967C443.681 931.833 669.147 769 568.347 399Z" fill="#39243C"/>
<path d="M661.272 838.914L698.339 798.766C708.441 787.751 702.688 779.657 709.01 771.655C712.894 766.676 721.754 766.028 728.526 769.478L736.188 773.382C743.494 777.105 748.995 783.05 744.909 791.069C742.639 795.524 729.253 803.294 712.5 818.551L662.061 864.68C655.665 870.624 649.031 872.631 644.041 870.089L631.567 863.733C624.973 860.373 620.828 852.649 622.564 836.026L631.074 751.922C631.562 746.559 630.006 739.481 632.911 733.779C636.271 727.185 642.454 725.622 649.761 729.345L670.432 739.878C677.204 743.328 680.101 750.416 677.196 756.119C675.562 759.326 670.672 767.16 669.364 774.574L658.777 837.642C658.219 840.5 659.288 841.045 661.272 838.914ZM822.79 815.263C857.361 832.878 869.279 865.437 850.029 903.216C830.78 940.995 797.434 950.491 762.863 932.876C728.292 915.261 716.375 882.702 735.624 844.924C754.873 807.145 788.219 797.649 822.79 815.263ZM776.589 927.524C790.96 931.48 800.12 914.823 810.321 878.943C820.064 844.402 819.864 823.649 807.904 820.249C795.854 817.027 784.898 834.564 775.332 869.196C765.579 905.079 764.451 924.033 776.589 927.524ZM928.35 899.127L892.757 968.982C891.123 972.19 890.625 978.894 888.99 982.102C886.085 987.804 878.647 989.626 871.875 986.176L853.699 976.915C846.927 973.464 844.029 966.376 846.935 960.674C848.569 957.466 853.701 953.122 855.335 949.915L890.928 880.06C892.562 876.852 893.06 870.147 894.695 866.94C897.6 861.237 905.038 859.415 911.81 862.866L929.986 872.127C936.758 875.578 939.656 882.666 936.75 888.368C935.116 891.576 929.985 895.92 928.35 899.127ZM933.545 946.218C948.255 917.35 978.303 894.501 1013.76 912.57C1040.14 926.008 1050.22 952.471 1040.96 971.095C1034.87 983.481 1023.41 985.273 1014.86 980.914C1007.55 977.192 1002.24 969.101 1003.66 959.273C1006.88 935.773 1013.33 922.227 1005.31 918.141C995.335 913.056 967.956 949.61 971.753 979.603C973.615 993.571 981.765 1004.01 992.457 1009.46C1003.51 1015.09 1017.37 1015.19 1028.79 1007.32C1029.51 1006.79 1029.95 1006.79 1030.49 1007.06C1031.2 1007.42 1031.46 1009.13 1030.55 1010.91C1016.39 1038.71 987.518 1047.34 958.115 1032.36C925.682 1015.84 915.749 981.146 933.545 946.218ZM1080.39 1069.98L1092.69 1076.24C1095.9 1077.87 1105.36 1068.55 1115.7 1073.82C1121.4 1076.73 1123.22 1084.16 1119.77 1090.94L1118.77 1092.9C1112.87 1104.48 1105.89 1105.41 1094.66 1099.69L1040.66 1072.18C1033.89 1068.73 1030.99 1061.64 1033.9 1055.94C1035.53 1052.73 1040.67 1048.39 1042.3 1045.18L1077.89 975.323C1079.53 972.116 1080.03 965.411 1081.66 962.203C1084.57 956.501 1092 954.679 1098.77 958.129L1147.42 982.917C1158.65 988.637 1162 994.835 1156.1 1006.42L1155.1 1008.38C1151.65 1015.15 1144.56 1018.05 1138.86 1015.14C1128.53 1009.88 1130.5 996.742 1127.3 995.108L1120.35 991.567C1118.56 990.659 1116.95 991.183 1116.04 992.965L1101.51 1021.48C1100.61 1023.26 1101.13 1024.87 1102.91 1025.78L1105.59 1027.14C1108.79 1028.78 1115.68 1028.92 1118.89 1030.55C1124.59 1033.46 1127.14 1039.47 1123.69 1046.24L1122.6 1048.38C1119.15 1055.15 1112.79 1056.63 1107.08 1053.72C1103.88 1052.09 1099.71 1046.6 1096.51 1044.96L1093.83 1043.6C1092.05 1042.69 1090.44 1043.22 1089.53 1045L1079 1065.67C1078.09 1067.45 1078.61 1069.07 1080.39 1069.98Z" fill="#39243C"/>
<path d="M868.369 488.409L878.462 429.036C879.368 423.653 879.787 416.62 883.727 411.577C888.283 405.745 894.651 405.391 901.113 410.439L919.395 424.723C925.384 429.402 926.876 436.913 922.935 441.956C920.719 444.793 913.513 451.092 911.725 458.578L903.987 491.872C903.421 494.221 904.524 495.083 906.667 493.965L929.249 482.928C942.699 476.432 937.164 465.001 944.896 458.352C949.659 454.205 958.48 455.259 964.469 459.938L971.246 465.233C977.707 470.282 981.027 476.428 976.432 484.259C973.122 489.795 965.936 495.094 950.84 499.797L904.745 514.291C903.376 514.744 901.795 515.793 900.933 516.896L885.049 537.227C882.833 540.064 885.128 541.349 882.911 544.186C878.971 549.23 871.322 549.599 865.334 544.92L849.258 532.36C843.269 527.681 841.777 520.17 845.717 515.127C847.934 512.29 853.8 509.005 856.016 506.168L866.482 492.772C867.344 491.669 868.103 489.724 868.369 488.409ZM1047.49 522.263C1078.06 546.151 1083.55 580.386 1057.45 613.797C1031.34 647.209 996.797 650.168 966.222 626.281C935.647 602.393 930.162 568.158 956.266 534.747C982.37 501.335 1016.91 498.376 1047.49 522.263ZM980.717 623.646C994.069 630.271 1006.24 615.668 1023.1 582.394C1039.25 550.346 1043.02 529.937 1031.93 524.317C1020.71 518.854 1006.61 533.979 990.613 566.15C974.192 599.513 969.468 617.903 980.717 623.646ZM1084.21 718.463C1051.27 692.728 1046.73 669.634 1063.96 647.569L1106.08 593.67C1108.29 590.833 1106 589.547 1108.21 586.71C1112.15 581.667 1119.8 581.298 1125.79 585.977L1145.02 600.999C1151.01 605.678 1152.5 613.189 1148.56 618.232C1146.34 621.069 1140.48 624.354 1138.26 627.191L1100.34 675.732C1085.56 694.645 1082.42 703.864 1090.61 710.267C1098.81 716.67 1106.99 711.391 1121.77 692.478L1159.69 643.937C1161.91 641.1 1163.68 634.614 1165.9 631.777C1169.84 626.733 1177.48 626.364 1183.47 631.043L1202.7 646.065C1208.69 650.744 1210.18 658.255 1206.24 663.299C1204.02 666.135 1202.22 664.22 1200.01 667.056L1157.89 720.956C1140.66 743.021 1117.15 744.197 1084.21 718.463ZM1253.91 788.357L1251.5 809.313C1251.14 813.347 1258.9 823.222 1253.12 830.629C1248.07 837.091 1240.64 838.145 1234.18 833.096L1218.11 820.537C1212.12 815.858 1212.94 808.633 1216.04 801.413C1218.6 795.542 1220.02 788.528 1220.91 784.145L1223.14 772.187C1223.62 770.276 1222.82 768.38 1221.24 767.148L1218.72 765.178C1217.14 763.947 1215.46 764.154 1214.23 765.73L1204.38 778.338C1202.16 781.175 1200.39 787.661 1198.18 790.498C1194.24 795.541 1186.59 795.91 1180.6 791.231L1164.52 778.672C1158.53 773.993 1157.04 766.482 1160.98 761.439C1163.2 758.602 1169.06 755.317 1171.28 752.48L1219.55 690.7C1221.76 687.863 1223.53 681.377 1225.75 678.54C1229.69 673.497 1237.34 673.128 1243.33 677.807L1271.85 700.094C1303.22 724.597 1314.63 752.547 1297.88 773.981C1288.15 786.432 1273.92 790.032 1257.47 786.067C1255.56 785.589 1254.11 786.48 1253.91 788.357ZM1259.17 708.205L1224.2 752.964C1222.97 754.54 1223.09 756.663 1224.38 757.929C1225.68 759.194 1227.13 760.583 1229.02 762.061C1237.85 768.956 1248.93 762.894 1261.26 746.134C1270.06 734.225 1278.5 718.228 1264.16 707.023C1262.61 706.072 1260.4 706.629 1259.17 708.205Z" fill="#39243C"/>
<path d="M358.557 1061.41L340.694 1108.99C335.498 1122.85 340.938 1129.17 335.791 1137.97C332.638 1143.45 323.955 1145.32 316.769 1142.85L310.717 1140.76C303.531 1138.29 299.675 1131.67 301.759 1125.62C302.931 1122.22 307.219 1117.14 308.58 1113.8L339.21 1041.43C340.571 1038.09 339.942 1031.31 341.114 1027.91C343.198 1021.86 350.31 1019.02 357.496 1021.49L392.858 1033.67C398.153 1035.49 398.664 1041.38 398.041 1046.88L393.937 1084.6C393.788 1086.87 394.03 1088.01 394.597 1088.21C395.165 1088.4 396.058 1087.65 397.341 1085.77L418.464 1053.91C421.546 1049.26 425.384 1044.87 430.679 1046.69L462.448 1057.63C469.634 1060.11 473.491 1066.72 471.407 1072.77C470.235 1076.18 465.569 1081.13 464.586 1084.6L443.789 1160.35C442.806 1163.82 443.057 1170.47 441.885 1173.87C439.801 1179.92 432.689 1182.76 425.503 1180.29L406.215 1173.65C399.029 1171.17 395.173 1164.55 397.256 1158.5C398.428 1155.1 403.094 1150.15 404.077 1146.68L420.834 1089.42C421.686 1086.32 421.829 1084.68 421.262 1084.49C420.694 1084.29 419.671 1085.42 417.938 1088L389.167 1132.24C386.534 1136.2 382.786 1137.87 379.004 1136.57L362.552 1130.9C358.77 1129.6 356.089 1125.71 356.452 1120.97L361.335 1061.95C361.62 1058.66 361.508 1057.14 361.13 1057.01C360.563 1056.82 359.853 1058.27 358.557 1061.41ZM503.119 1171.26C499.296 1180.52 503.537 1186.64 499.224 1194.25C496.071 1199.72 487.388 1201.6 480.202 1199.12L472.07 1196.32C464.317 1193.65 458.043 1188.53 460.973 1180.02C462.6 1175.29 474.775 1165.74 489.241 1148.29L532.77 1095.6C538.276 1088.82 544.567 1085.91 549.862 1087.73L563.099 1092.29C570.096 1094.7 575.276 1101.77 575.87 1118.47L579.148 1202.94C579.411 1208.32 581.937 1215.11 579.854 1221.17C577.445 1228.16 571.539 1230.57 563.785 1227.9L541.849 1220.35C534.663 1217.87 530.807 1211.26 532.891 1205.21C534.063 1201.8 538.004 1193.43 538.079 1185.84L538.169 1183.12C538.187 1181.22 537.065 1179.57 535.174 1178.92L507.565 1169.41C505.674 1168.76 503.894 1169.63 503.119 1171.26ZM517.964 1153.95L535.739 1160.07C537.631 1160.73 538.778 1159.85 538.796 1157.95L539.992 1120.08C540.011 1118.18 539.443 1117.99 538.29 1119.49L516.671 1150.34C515.518 1151.84 516.073 1153.3 517.964 1153.95ZM645.908 1141.96L644.206 1141.37C640.802 1140.2 627.645 1153.22 616.677 1149.45C610.625 1147.36 607.786 1140.25 610.26 1133.06L612.279 1127.2C616.511 1114.91 623.297 1113.02 635.211 1117.12L715.391 1144.73C727.304 1148.83 731.486 1154.5 727.254 1166.79L725.235 1172.65C722.761 1179.84 716.145 1183.7 710.094 1181.61C699.126 1177.84 696.777 1159.47 693.373 1158.3L691.671 1157.71C689.78 1157.06 688.255 1157.81 687.604 1159.7L659.409 1241.58C658.237 1244.98 660.826 1245.45 659.654 1248.85C657.57 1254.91 650.458 1257.74 643.273 1255.27L623.984 1248.63C616.798 1246.15 612.942 1239.54 615.025 1233.49C616.197 1230.08 620.674 1225.07 621.846 1221.66L647.892 1146.02C648.543 1144.13 647.799 1142.61 645.908 1141.96ZM774.196 1186.13L772.494 1185.54C769.09 1184.37 755.932 1197.4 744.964 1193.62C738.913 1191.54 736.074 1184.42 738.548 1177.24L740.566 1171.38C744.799 1159.08 751.585 1157.19 763.499 1161.29L843.679 1188.9C855.592 1193 859.774 1198.67 855.541 1210.96L853.523 1216.83C851.049 1224.01 844.433 1227.87 838.381 1225.79C827.413 1222.01 825.065 1203.64 821.661 1202.47L819.959 1201.89C818.068 1201.23 816.542 1201.98 815.891 1203.87L787.697 1285.75C786.525 1289.16 789.114 1289.62 787.942 1293.03C785.858 1299.08 778.746 1301.92 771.56 1299.44L752.272 1292.8C745.086 1290.33 741.229 1283.71 743.313 1277.66C744.485 1274.26 748.962 1269.24 750.134 1265.84L776.18 1190.2C776.831 1188.3 776.087 1186.78 774.196 1186.13ZM889.529 1318.91L902.577 1323.4C905.981 1324.58 914.054 1314.03 925.022 1317.81C931.074 1319.89 933.913 1327 931.439 1334.19L930.722 1336.27C926.49 1348.56 919.704 1350.45 907.79 1346.35L850.492 1326.62C843.306 1324.15 839.45 1317.53 841.533 1311.48C842.705 1308.08 847.182 1303.06 848.354 1299.66L873.879 1225.53C875.051 1222.12 874.611 1215.42 875.783 1212.01C877.867 1205.96 884.979 1203.12 892.164 1205.6L943.79 1223.37C955.703 1227.47 959.885 1233.14 955.653 1245.44L954.936 1247.52C952.462 1254.7 945.846 1258.56 939.795 1256.47C928.827 1252.7 928.958 1239.42 925.554 1238.24L918.179 1235.71C916.288 1235.05 914.763 1235.8 914.111 1237.69L903.693 1267.95C903.042 1269.84 903.786 1271.36 905.677 1272.01L908.514 1272.99C911.918 1274.16 918.756 1273.34 922.16 1274.52C928.212 1276.6 931.572 1282.2 929.098 1289.38L928.316 1291.65C925.842 1298.84 919.747 1301.18 913.696 1299.1C910.292 1297.93 905.406 1293.07 902.002 1291.9L899.166 1290.92C897.275 1290.27 895.749 1291.02 895.098 1292.91L887.545 1314.84C886.894 1316.73 887.638 1318.26 889.529 1318.91ZM1047.61 1344.36L1052.15 1364.97C1053.13 1368.9 1063.68 1375.7 1060.62 1384.59C1057.95 1392.35 1051.28 1395.76 1043.53 1393.09L1024.24 1386.45C1017.05 1383.97 1015.48 1376.87 1016.06 1369.04C1016.57 1362.65 1015.62 1355.56 1015.04 1351.13L1013.26 1339.09C1013.09 1337.13 1011.71 1335.6 1009.82 1334.95L1006.79 1333.91C1004.9 1333.25 1003.38 1334 1002.73 1335.89L997.517 1351.02C996.345 1354.42 996.785 1361.13 995.613 1364.53C993.529 1370.59 986.417 1373.42 979.231 1370.95L959.943 1364.31C952.757 1361.83 948.901 1355.22 950.984 1349.17C952.156 1345.76 956.633 1340.75 957.805 1337.34L983.33 1263.22C984.502 1259.81 984.062 1253.1 985.234 1249.7C987.318 1243.65 994.43 1240.81 1001.62 1243.28L1035.84 1255.07C1073.48 1268.03 1093.36 1290.74 1084.51 1316.46C1079.36 1331.4 1067.08 1339.43 1050.24 1341.04C1048.28 1341.21 1047.19 1342.53 1047.61 1344.36ZM1026.49 1266.87L1008 1320.57C1007.35 1322.46 1008.15 1324.43 1009.79 1325.21C1011.43 1325.98 1013.25 1326.82 1015.52 1327.6C1026.11 1331.25 1034.61 1321.91 1040.82 1302.05C1045.26 1287.92 1048.03 1270.05 1030.82 1264.13C1029.05 1263.73 1027.14 1264.98 1026.49 1266.87ZM1111.67 1320.52C1119.15 1298.77 1144.85 1290.49 1173.97 1300.51C1200.45 1309.63 1211.75 1324.73 1207.63 1337.91C1205.28 1345.35 1198.1 1348.38 1187.82 1346.32C1178.92 1344.52 1172.34 1337.82 1170.16 1328.18C1167.49 1316.9 1165.6 1309.48 1162.01 1308.24C1158.6 1307.07 1155.09 1310.51 1152.48 1318.08C1140.05 1354.19 1208.48 1361.26 1194.54 1401.73C1186.34 1425.55 1158.04 1434.63 1124.38 1423.04C1094.69 1412.82 1081.03 1400.29 1083.95 1386.28C1086.07 1376.43 1095.37 1369.69 1107.47 1373.86C1117.3 1377.25 1122.93 1384.26 1127.02 1398.78C1128.97 1406.01 1129.79 1413.48 1137.92 1416.28C1143.97 1418.37 1148.87 1415.19 1151.48 1407.63C1160.59 1381.15 1095.52 1367.42 1111.67 1320.52Z" fill="#39243C"/>
<path d="M557.794 631.734L264.028 459.573L346.424 364.787L557.794 631.734Z" fill="#F8B2FC"/>
<path d="M530.135 698.037L192.453 654.344L231.263 534.9L530.135 698.037Z" fill="#F8B2FC"/>
<path d="M454.307 752.163L135.639 872.117L113.83 748.434L454.307 752.163Z" fill="#F8B2FC"/>
</svg>
